<svg width="180" height="45" viewBox="0 0 180 45" fill="none" xmlns="http://www.w3.org/2000/svg">
<g clip-path="url(#clip0)">
<path d="M63.7396 4.64208H54.6637V40.1649H63.7396V4.64208Z" fill="white"/>
<path d="M67.9218 13.5271H75.3665V16.3557H75.462C76.2776 15.0629 77.9609 12.6074 82.7158 12.6074C85.2581 12.6074 88.0954 13.6659 89.5357 14.9154C90.9761 16.1649 92.6073 18.2733 92.6073 23.5054V40.1649H84.6333V25.6226C84.6333 23.7484 84.6333 20.1041 80.4511 20.1041C75.8871 20.1041 75.8871 24.0434 75.8871 25.6746V40.1735H67.9132V13.5271H67.9218Z" fill="white"/>
<path d="M96.6333 19.5748H93.6572V13.5271H96.6333V12.1388C96.6333 4.65075 102.924 3.97396 106.811 3.97396H107.965V9.9783H107.054C106.386 9.9783 104.607 10.2213 104.607 12.4772V13.5358H107.965V19.5835H104.607V40.1822H96.6333V19.5748Z" fill="white"/>
<path d="M119.401 4.64208H111.427V40.1649H119.401V4.64208Z" fill="white"/>
<path d="M147.922 40.1649H140.382V37.3362H140.286C138.655 40.7462 135.393 41.0325 133.371 41.0325C131.74 41.0325 127.896 40.6508 125.544 37.6746C123.427 35.0369 123.141 33.1106 123.141 29.4664V13.5271H131.115V28.269C131.115 30.0911 131.115 33.5965 135.393 33.5965C137.701 33.5965 139.957 32.3991 139.957 28.1735V13.5271H147.931V40.1649H147.922Z" fill="white"/>
<path d="M169.197 13.5271L164.928 20.5293L160.599 13.5271H151.046L160.026 25.9089L149.892 40.1649H159.497L164.928 31.9132L170.256 40.1649H180L169.683 25.9089L178.655 13.5271H169.197Z" fill="white"/>
<path d="M45.0065 0H0V44.9978H45.0065V0Z" fill="url(#paint0_linear)"/>
<path d="M18.7592 24.3297L25.7961 14.0564V34.5857H18.7592V24.3297Z" fill="white"/>
<path d="M25.7961 10.4208H18.7592V20.6941L25.7961 10.4208Z" fill="#F9B78E"/>
</g>
<defs>
<linearGradient id="paint0_linear" x1="47.2159" y1="0.575417" x2="-2.51106" y2="13.5566" gradientUnits="userSpaceOnUse">
<stop stop-color="#EA1877"/>
<stop offset="1" stop-color="#FF8732"/>
</linearGradient>
<clipPath id="clip0">
<rect width="180" height="44.9978" fill="white"/>
</clipPath>
</defs>
</svg>
