<svg width="220" height="55" viewBox="0 0 220 55" fill="none" xmlns="http://www.w3.org/2000/svg">
<g clip-path="url(#clip0)">
<path d="M77.904 5.67383H66.8112V49.0906H77.904V5.67383Z" fill="black"/>
<path d="M83.0155 16.5328H92.1146V19.99H92.2313C93.2281 18.4099 95.2855 15.4087 101.097 15.4087C104.204 15.4087 107.672 16.7025 109.433 18.2296C111.193 19.7567 113.187 22.3337 113.187 28.7285V49.0901H103.441V31.3161C103.441 29.0255 103.441 24.5714 98.3291 24.5714C92.7509 24.5714 92.7509 29.386 92.7509 31.3798V49.1007H83.0049V16.5328H83.0155Z" fill="black"/>
<path d="M118.107 23.9247H114.47V16.533H118.107V14.8362C118.107 5.68412 125.796 4.85693 130.547 4.85693H131.958V12.1956H130.844C130.027 12.1956 127.853 12.4925 127.853 15.2498V16.5436H131.958V23.9353H127.853V49.1115H118.107V23.9247Z" fill="black"/>
<path d="M145.935 5.67383H136.189V49.0906H145.935V5.67383Z" fill="black"/>
<path d="M180.794 49.0904H171.578V45.6332H171.461C169.467 49.801 165.48 50.1509 163.009 50.1509C161.015 50.1509 156.317 49.6843 153.443 46.0468C150.856 42.8229 150.506 40.4686 150.506 36.0145V16.5332H160.252V34.551C160.252 36.7781 160.252 41.0625 165.48 41.0625C168.301 41.0625 171.058 39.599 171.058 34.4344V16.5332H180.804V49.0904H180.794Z" fill="black"/>
<path d="M206.797 16.5332L201.579 25.0914L196.287 16.5332H184.611L195.587 31.6665L183.201 49.0904H194.94L201.579 39.0051L208.091 49.0904H220L207.391 31.6665L218.356 16.5332H206.797Z" fill="black"/>
<path d="M55.008 0H0V54.9973H55.008V0Z" fill="url(#paint0_linear)"/>
<path d="M22.9279 29.7365L31.5285 17.1802V42.2715H22.9279V29.7365Z" fill="white"/>
<path d="M31.5285 12.7363H22.9279V25.2926L31.5285 12.7363Z" fill="#F9B78E"/>
</g>
<defs>
<linearGradient id="paint0_linear" x1="57.7083" y1="0.703287" x2="-3.06908" y2="16.5691" gradientUnits="userSpaceOnUse">
<stop stop-color="#EA1877"/>
<stop offset="1" stop-color="#FF8732"/>
</linearGradient>
<clipPath id="clip0">
<rect width="220" height="54.9973" fill="white"/>
</clipPath>
</defs>
</svg>
